<svg width="184" height="36" viewBox="0 0 184 36" fill="none" xmlns="http://www.w3.org/2000/svg">
<path d="M50.64 25.68C49.3467 25.68 48.2733 25.48 47.42 25.08C46.5667 24.68 45.9267 24.1267 45.5 23.42C45.0733 22.7 44.8533 21.8733 44.84 20.94H47.08C47.1067 21.8733 47.4 22.6133 47.96 23.16C48.5333 23.6933 49.44 23.96 50.68 23.96C51.7067 23.96 52.5267 23.7733 53.14 23.4C53.7667 23.0267 54.08 22.4533 54.08 21.68C54.08 21.1067 53.9533 20.6533 53.7 20.32C53.46 19.9733 53.06 19.7067 52.5 19.52C51.94 19.32 51.1867 19.14 50.24 18.98C49.12 18.7933 48.1867 18.5467 47.44 18.24C46.6933 17.92 46.1267 17.4933 45.74 16.96C45.3667 16.4267 45.18 15.7467 45.18 14.92C45.18 13.64 45.6533 12.6267 46.6 11.88C47.56 11.1333 48.8733 10.76 50.54 10.76C52.22 10.76 53.52 11.1533 54.44 11.94C55.3733 12.7133 55.8533 13.74 55.88 15.02H53.66C53.6333 14.14 53.3267 13.4933 52.74 13.08C52.1533 12.6533 51.3933 12.44 50.46 12.44C49.5 12.44 48.7533 12.64 48.22 13.04C47.7 13.4267 47.44 13.9533 47.44 14.62C47.44 15.1667 47.5667 15.5867 47.82 15.88C48.0867 16.16 48.5067 16.3867 49.08 16.56C49.6533 16.7333 50.4067 16.9 51.34 17.06C51.9933 17.1667 52.6133 17.3 53.2 17.46C53.8 17.62 54.3333 17.86 54.8 18.18C55.28 18.4867 55.6533 18.9067 55.92 19.44C56.2 19.96 56.34 20.64 56.34 21.48C56.34 22.72 55.8533 23.7333 54.88 24.52C53.9067 25.2933 52.4933 25.68 50.64 25.68ZM58.6627 13.3V10.92H60.7227V13.3H58.6627ZM58.6627 25.5V14.92H60.7227V25.5H58.6627ZM63.5845 25.5V10.92H65.6445V25.5H63.5845ZM70.8064 25.5L67.0064 14.92H69.2264L71.3464 21.44L72.0264 23.72H72.1064L72.7464 21.44L74.8664 14.92H77.0864L73.3264 25.5H70.8064ZM82.472 25.68C81.432 25.68 80.5454 25.46 79.812 25.02C79.0787 24.5667 78.5187 23.9333 78.132 23.12C77.7454 22.3067 77.552 21.3533 77.552 20.26C77.552 19.14 77.7454 18.1733 78.132 17.36C78.5187 16.5333 79.072 15.8933 79.792 15.44C80.5254 14.9867 81.3987 14.76 82.412 14.76C83.5187 14.76 84.432 15.0133 85.152 15.52C85.8854 16.0133 86.412 16.7 86.732 17.58C87.052 18.46 87.172 19.4733 87.092 20.62H79.572C79.5854 21.78 79.852 22.6533 80.372 23.24C80.9054 23.8133 81.6054 24.1 82.472 24.1C83.1787 24.1 83.7587 23.9333 84.212 23.6C84.6654 23.2533 84.952 22.8067 85.072 22.26H87.032C86.9387 22.9667 86.6854 23.58 86.272 24.1C85.8587 24.6067 85.3254 25 84.672 25.28C84.0187 25.5467 83.2854 25.68 82.472 25.68ZM82.412 16.34C81.5987 16.34 80.9454 16.5867 80.452 17.08C79.9587 17.5733 79.672 18.2867 79.592 19.22H85.072C85.0454 18.22 84.7854 17.4933 84.292 17.04C83.7987 16.5733 83.172 16.34 82.412 16.34ZM89.2486 25.5V14.92H91.0886L91.1886 16.8H91.2886C91.5153 16.12 91.9019 15.6133 92.4486 15.28C93.0086 14.9467 93.6419 14.78 94.3486 14.78C94.4686 14.78 94.5819 14.7867 94.6886 14.8C94.7953 14.8 94.8886 14.8067 94.9686 14.82V16.76C94.8886 16.7467 94.7886 16.74 94.6686 16.74C94.5619 16.74 94.4486 16.74 94.3286 16.74C93.3819 16.74 92.6486 16.98 92.1286 17.46C91.6219 17.9267 91.3419 18.5933 91.2886 19.46V25.5H89.2486ZM100.273 25.7C98.8861 25.7 97.7995 25.38 97.0128 24.74C96.2261 24.0867 95.8328 23.2333 95.8328 22.18H97.8728C97.8728 22.8733 98.0995 23.3867 98.5528 23.72C99.0061 24.04 99.5928 24.2 100.313 24.2C101.046 24.2 101.599 24.0667 101.973 23.8C102.359 23.52 102.553 23.1333 102.553 22.64C102.553 22.0933 102.359 21.7133 101.973 21.5C101.599 21.2867 100.973 21.1133 100.093 20.98C98.7595 20.7933 97.7595 20.4867 97.0928 20.06C96.4395 19.62 96.1128 18.9067 96.1128 17.92C96.1128 16.96 96.4928 16.1867 97.2528 15.6C98.0261 15.0133 99.0395 14.72 100.293 14.72C101.559 14.72 102.559 15.0267 103.293 15.64C104.039 16.24 104.419 17.04 104.433 18.04H102.413C102.399 17.4 102.199 16.94 101.813 16.66C101.426 16.38 100.906 16.24 100.253 16.24C99.5995 16.24 99.0861 16.3733 98.7128 16.64C98.3528 16.9067 98.1728 17.2667 98.1728 17.72C98.1728 18.24 98.3795 18.6067 98.7928 18.82C99.2195 19.0333 99.8995 19.2067 100.833 19.34C102.059 19.5133 102.999 19.82 103.653 20.26C104.306 20.6867 104.633 21.42 104.633 22.46C104.633 23.5 104.233 24.3 103.433 24.86C102.633 25.42 101.579 25.7 100.273 25.7ZM109.827 25.5C108.961 25.5 108.361 25.3133 108.027 24.94C107.707 24.5533 107.547 24.0067 107.547 23.3V16.6H105.547V14.92H107.547V11.86L109.607 11.62V14.92H111.947V16.6H109.607V22.92C109.607 23.2667 109.674 23.5 109.807 23.62C109.941 23.74 110.174 23.8 110.507 23.8H111.947V25.5H109.827ZM118.162 25.68C117.135 25.68 116.228 25.46 115.442 25.02C114.668 24.5667 114.062 23.9333 113.622 23.12C113.195 22.3067 112.982 21.3467 112.982 20.24C112.982 19.1467 113.188 18.1933 113.602 17.38C114.028 16.5533 114.628 15.9133 115.402 15.46C116.175 14.9933 117.095 14.76 118.162 14.76C119.188 14.76 120.088 14.98 120.862 15.42C121.635 15.86 122.235 16.4933 122.662 17.32C123.102 18.1333 123.322 19.1 123.322 20.22C123.322 21.3 123.108 22.2533 122.682 23.08C122.268 23.8933 121.675 24.5333 120.902 25C120.142 25.4533 119.228 25.68 118.162 25.68ZM118.162 23.96C119.082 23.96 119.822 23.64 120.382 23C120.942 22.3467 121.222 21.42 121.222 20.22C121.222 19.0333 120.948 18.1133 120.402 17.46C119.855 16.7933 119.108 16.46 118.162 16.46C117.242 16.46 116.495 16.7867 115.922 17.44C115.362 18.08 115.082 19.0133 115.082 20.24C115.082 21.4133 115.355 22.3267 115.902 22.98C116.462 23.6333 117.215 23.96 118.162 23.96ZM125.479 25.5V14.92H127.439L127.519 17.02H127.639C127.946 16.2733 128.419 15.7133 129.059 15.34C129.712 14.9533 130.432 14.76 131.219 14.76C131.939 14.76 132.586 14.9067 133.159 15.2C133.732 15.4933 134.179 15.9667 134.499 16.62C134.832 17.2733 134.999 18.14 134.999 19.22V25.5H132.939V19.64C132.939 18.56 132.739 17.76 132.339 17.24C131.939 16.72 131.319 16.46 130.479 16.46C129.866 16.46 129.339 16.6067 128.899 16.9C128.459 17.1933 128.119 17.5867 127.879 18.08C127.639 18.5733 127.519 19.12 127.519 19.72V25.5H125.479ZM141.984 25.68C140.944 25.68 140.057 25.46 139.324 25.02C138.59 24.5667 138.03 23.9333 137.644 23.12C137.257 22.3067 137.064 21.3533 137.064 20.26C137.064 19.14 137.257 18.1733 137.644 17.36C138.03 16.5333 138.584 15.8933 139.304 15.44C140.037 14.9867 140.91 14.76 141.924 14.76C143.03 14.76 143.944 15.0133 144.664 15.52C145.397 16.0133 145.924 16.7 146.244 17.58C146.564 18.46 146.684 19.4733 146.604 20.62H139.084C139.097 21.78 139.364 22.6533 139.884 23.24C140.417 23.8133 141.117 24.1 141.984 24.1C142.69 24.1 143.27 23.9333 143.724 23.6C144.177 23.2533 144.464 22.8067 144.584 22.26H146.544C146.45 22.9667 146.197 23.58 145.784 24.1C145.37 24.6067 144.837 25 144.184 25.28C143.53 25.5467 142.797 25.68 141.984 25.68ZM141.924 16.34C141.11 16.34 140.457 16.5867 139.964 17.08C139.47 17.5733 139.184 18.2867 139.104 19.22H144.584C144.557 18.22 144.297 17.4933 143.804 17.04C143.31 16.5733 142.684 16.34 141.924 16.34Z" fill="white"/>
<rect y="3" width="30" height="30" rx="15" fill="white"/>
<path fill-rule="evenodd" clip-rule="evenodd" d="M5 14.6667L8.33333 21.3333H5V24.6667L11.6667 28L18.3333 24.6667V28H21.6667L25 21.3333L21.6667 14.6667H25V11.3333L18.3333 8L11.6667 11.3333V8H8.33333L5 14.6667ZM18.3333 14.6667H11.6667V21.3333H18.3333V14.6667Z" fill="black"/>
</svg>
